<?xml version="1.0" encoding="UTF-8"?>
<svg
    xmlns="http://www.w3.org/2000/svg"
    width="100"
    height="140"
    viewBox="-40 -40 514.18 554.94"
    fill="#2FCF6E"
    preserveAspectRatio="xMidYMid meet"
    role="img"
    class="iconify iconify--mdi"
>
  <!-- original logo -->
  <path d="M408.37,196.63c-6.89,0-13.37-2.68-18.25-7.55L245.06,44.1c-10.07-10.06-10.07-26.44-.01-36.5C249.92,2.72,256.4.03,263.3.03s13.37,2.68,18.24,7.55l101.01,100.95V25.81c0-14.23,11.58-25.81,25.81-25.81s25.81,11.58,25.81,25.81v145c0,10.47-6.25,19.83-15.93,23.84-3.15,1.31-6.47,1.97-9.88,1.97Z"/>
  <path d="M170.92,434.18c-6.89,0-13.37-2.68-18.25-7.56l-101.05-101.05v82.8c0,14.23-11.58,25.81-25.81,25.81S0,422.6,0,408.37v-145.11C0,252.78,6.25,243.42,15.93,239.41c3.15-1.3,6.47-1.97,9.87-1.97,6.9,0,13.38,2.69,18.26,7.56l145.11,145.11c10.06,10.06,10.06,26.44,0,36.5-4.88,4.88-11.36,7.56-18.25,7.56Z"/>
  <path d="M289.64,434.18c-6.89,0-13.37-2.68-18.25-7.56L7.56,162.87C2.69,157.99,0,151.51,0,144.62c0-6.89,2.68-13.38,7.56-18.25,4.88-4.88,11.36-7.56,18.25-7.56s13.37,2.68,18.25,7.56l263.83,263.75c10.06,10.06,10.07,26.44,0,36.5-4.87,4.88-11.36,7.56-18.25,7.56Z"/>
  <path d="M408.37,434.94c-6.9,0-13.39-2.69-18.27-7.58L7.58,44.08c-10.05-10.07-10.04-26.45.04-36.5C12.48,2.71,18.96.03,25.84.03s13.39,2.69,18.27,7.58l382.53,383.29c4.87,4.88,7.55,11.36,7.54,18.26,0,6.89-2.7,13.37-7.58,18.24-4.87,4.86-11.35,7.54-18.23,7.54Z"/>
  <path d="M408.37,315.45c-6.89,0-13.38-2.68-18.25-7.56L126.32,44.09c-10.06-10.06-10.06-26.44,0-36.5C131.19,2.72,137.68.03,144.57.03s13.38,2.68,18.25,7.56l263.8,263.8c10.06,10.06,10.06,26.44,0,36.5-4.88,4.88-11.36,7.56-18.25,7.56Z"/>
  <path d="M408.37,191.51c-5.53,0-10.72-2.16-14.63-6.06L248.67,40.48c-8.07-8.07-8.08-21.2-.01-29.27,3.91-3.91,9.11-6.07,14.64-6.07s10.72,2.16,14.63,6.06l109.74,109.67V25.81c0-11.41,9.28-20.69,20.7-20.69s20.7,9.28,20.7,20.69v145.01c0,8.4-5.02,15.9-12.77,19.12-2.52,1.05-5.19,1.58-7.92,1.58Z"/>
  <path d="M170.92,429.07c-5.53,0-10.73-2.16-14.63-6.06l-109.77-109.77v95.13c0,11.42-9.28,20.7-20.7,20.7s-20.7-9.28-20.7-20.7v-145.1c0-8.41,5.02-15.91,12.78-19.13,2.52-1.05,5.19-1.58,7.92-1.58,5.53,0,10.73,2.16,14.64,6.06l145.11,145.11c8.07,8.07,8.07,21.2,0,29.28-3.91,3.9-9.1,6.06-14.63,6.06Z"/>
  <path d="M289.65,429.07c-5.53,0-10.73-2.16-14.63-6.06L11.18,159.25c-3.91-3.9-6.06-9.1-6.06-14.63,0-5.53,2.15-10.72,6.06-14.63s9.11-6.07,14.64-6.07,10.72,2.16,14.63,6.06l263.84,263.76c8.07,8.07,8.07,21.2,0,29.27-3.91,3.91-9.11,6.07-14.64,6.07Z"/>
  <path d="M408.37,429.84c-5.54,0-10.74-2.16-14.65-6.08L11.19,40.46c-3.9-3.9-6.04-9.1-6.03-14.64,0-5.54,2.16-10.73,6.06-14.63,3.91-3.89,9.1-6.04,14.62-6.04s10.74,2.16,14.65,6.07l382.53,383.3c3.91,3.91,6.06,9.11,6.05,14.63,0,5.53-2.16,10.72-6.07,14.63-3.91,3.9-9.1,6.05-14.62,6.05Z"/>
  <path d="M408.37,310.34c-5.53,0-10.72-2.16-14.63-6.06L129.93,40.48c-8.07-8.08-8.07-21.2,0-29.28,3.91-3.9,9.1-6.06,14.63-6.06s10.73,2.16,14.63,6.06l263.8,263.8c8.07,8.08,8.07,21.2,0,29.28-3.91,3.9-9.11,6.06-14.64,6.06Z"/>
  <path d="M408.37,186.4c-4.16,0-8.07-1.62-11.03-4.57L252.28,36.87c-2.94-2.93-4.56-6.85-4.56-11.02,0-4.17,1.61-8.09,4.55-11.02,2.95-2.94,6.87-4.57,11.03-4.57s8.07,1.62,11.02,4.56l118.46,118.4V25.81c0-8.6,6.99-15.58,15.59-15.58s15.59,6.99,15.59,15.58v145.01c0,6.32-3.77,11.97-9.62,14.4-1.9.79-3.9,1.19-5.96,1.19Z"/>
  <path d="M170.92,423.96c-4.16,0-8.08-1.62-11.02-4.56l-118.5-118.5v107.47c0,8.6-6.99,15.59-15.59,15.59s-15.59-7-15.59-15.59v-145.1c0-6.33,3.78-11.98,9.62-14.41,1.9-.79,3.9-1.19,5.96-1.19,4.16,0,8.08,1.62,11.03,4.56l145.11,145.11c6.07,6.08,6.07,15.97,0,22.05-2.94,2.94-6.85,4.56-11.02,4.56Z"/>
  <path d="M289.65,423.96c-4.16,0-8.08-1.62-11.02-4.56L14.79,155.64c-2.94-2.93-4.57-6.85-4.57-11.02,0-4.16,1.62-8.08,4.56-11.02,2.95-2.94,6.86-4.57,11.03-4.57s8.07,1.62,11.02,4.56l263.84,263.76c6.08,6.08,6.08,15.96,0,22.04-2.95,2.94-6.86,4.57-11.03,4.57Z"/>
  <path d="M408.37,424.73c-4.17,0-8.09-1.63-11.04-4.58L14.81,36.85c-2.93-2.93-4.55-6.85-4.54-11.02,0-4.17,1.63-8.1,4.57-11.03,2.94-2.92,6.85-4.54,11.01-4.54s8.09,1.63,11.03,4.57l382.53,383.3c2.94,2.94,4.57,6.86,4.56,11.01,0,4.16-1.63,8.09-4.58,11.03-2.94,2.93-6.85,4.55-11.01,4.55Z"/>
  <path d="M408.37,305.23c-4.16,0-8.07-1.62-11.03-4.57L133.55,36.87c-6.07-6.08-6.07-15.97,0-22.05,2.94-2.94,6.86-4.56,11.02-4.56s8.08,1.62,11.02,4.56l263.8,263.8c6.07,6.08,6.07,15.97,0,22.05-2.95,2.94-6.87,4.56-11.03,4.56Z"/>
  <!-- company name below, centered and bold -->
  <text
    x="217.09"
    y="550"
    text-anchor="middle"
    font-family="Arial, sans-serif"
    font-size="120"
    font-weight="bold"
  >NOSIBLE</text>
</svg>
